<?xml version="1.0" standalone="no"?>
<!DOCTYPE svg PUBLIC "-//W3C//DTD SVG 20010904//EN"
 "http://www.w3.org/TR/2001/REC-SVG-20010904/DTD/svg10.dtd">
<svg version="1.0" xmlns="http://www.w3.org/2000/svg"
 width="80.000000pt" height="80.000000pt" viewBox="0 0 80.000000 80.000000"
 preserveAspectRatio="xMidYMid meet">
<metadata>
</metadata>
<g transform="translate(0.000000,80.000000) scale(0.100000,-0.100000)"
fill="#000000" stroke="none">
<path d="M306 790 c-106 -27 -219 -118 -266 -215 -50 -104 -50 -246 1 -352 31
-66 122 -153 194 -189 55 -26 69 -29 165 -29 95 0 111 3 162 28 88 43 152 107
195 195 36 72 38 81 38 172 0 91 -2 100 -37 172 -68 136 -188 217 -336 224
-42 2 -94 -1 -116 -6z m102 -257 c3 -22 0 -23 -52 -23 l-56 0 0 -135 0 -135
-25 0 -25 0 0 135 0 135 -55 0 c-47 0 -55 3 -55 18 0 10 3 22 7 26 4 3 63 5
132 4 122 -3 126 -4 129 -25z m202 18 c15 -4 26 -15 28 -29 3 -21 1 -21 -62
-15 -70 6 -96 -4 -96 -38 0 -22 21 -35 73 -44 21 -4 52 -19 68 -32 38 -33 41
-98 6 -131 -29 -27 -99 -38 -155 -23 -35 10 -42 16 -42 37 0 19 4 25 14 21 58
-23 98 -27 124 -15 30 14 41 51 22 73 -6 8 -33 17 -58 21 -84 13 -127 84 -86
142 9 13 26 27 38 32 25 10 91 11 126 1z"/>
</g>
</svg>
